<?xml version="1.0" standalone="no"?>
<!DOCTYPE svg PUBLIC "-//W3C//DTD SVG 20010904//EN"
 "http://www.w3.org/TR/2001/REC-SVG-20010904/DTD/svg10.dtd">
<svg version="1.0" xmlns="http://www.w3.org/2000/svg"
 width="3732.000000pt" height="2302.000000pt" viewBox="0 0 3732.000000 2302.000000"
 preserveAspectRatio="xMidYMid meet">

<g transform="translate(0.000000,2302.000000) scale(0.100000,-0.100000)"
fill="#000000" stroke="none">
<path d="M23080 23010 c-1771 -47 -3583 -195 -5580 -456 -4227 -551 -8220
-1793 -11127 -3460 -1070 -614 -1920 -1244 -2568 -1905 -221 -226 -320 -339
-472 -539 -420 -554 -644 -1043 -704 -1532 -15 -127 -7 -444 15 -561 119 -631
555 -1172 1316 -1629 618 -371 1521 -702 2545 -932 680 -153 1467 -276 2299
-361 216 -22 261 -25 271 -13 23 23 664 1148 1147 2013 1050 1878 2341 4279
3402 6330 85 165 161 303 168 307 14 7 3200 248 3207 242 2 -2 -43 -81 -99
-176 -610 -1029 -899 -1524 -1410 -2418 -1066 -1866 -2397 -4280 -3497 -6345
-315 -591 -596 -1120 -769 -1448 -148 -280 -204 -379 -219 -382 -11 -2 -627
-42 -1369 -90 -1384 -89 -1376 -88 -1376 -127 0 -8 -9 -20 -20 -28 -11 -8 -20
-22 -20 -32 0 -10 -4 -18 -10 -18 -5 0 -10 -8 -10 -18 0 -10 -9 -24 -20 -32
-11 -8 -20 -22 -20 -32 0 -10 -4 -18 -10 -18 -15 0 -12 -29 4 -46 16 -16 86
-19 86 -4 0 6 60 10 160 10 100 0 160 4 160 10 0 6 57 10 150 10 93 0 150 4
150 10 0 6 60 10 160 10 100 0 160 4 160 10 0 6 57 10 150 10 93 0 150 4 150
10 0 6 60 10 160 10 100 0 160 4 160 10 0 6 57 10 150 10 93 0 150 4 150 10 0
6 57 10 150 10 93 0 150 4 150 10 0 6 60 10 160 10 100 0 160 4 160 10 0 6 57
10 150 10 93 0 150 4 150 10 0 17 302 11 500 -10 1540 -163 3397 -180 5295
-50 1161 80 2456 219 3505 376 3401 509 6697 1588 9065 2967 981 571 1853
1238 2385 1822 186 204 185 197 24 117 -560 -280 -1274 -597 -1979 -877 -2681
-1065 -5876 -1911 -9321 -2469 -253 -41 -254 -41 -254 -21 0 8 5 15 10 15 6 0
10 9 10 20 0 11 5 20 10 20 6 0 10 9 10 20 0 11 5 20 10 20 6 0 10 9 10 20 0
11 5 20 10 20 6 0 10 9 10 20 0 11 5 20 10 20 6 0 10 8 10 18 0 10 9 24 20 32
11 8 20 22 20 32 0 10 5 18 10 18 6 0 10 9 10 20 0 11 5 20 10 20 6 0 10 9 10
20 0 11 5 20 10 20 6 0 10 9 10 20 0 11 5 20 10 20 6 0 10 9 10 20 0 11 5 20
10 20 6 0 10 9 10 20 0 11 5 20 10 20 6 0 10 9 10 20 0 11 5 20 10 20 6 0 10
9 10 20 0 11 5 20 10 20 6 0 10 9 10 20 0 11 5 20 10 20 6 0 10 9 10 20 0 11
5 20 10 20 6 0 10 8 10 18 0 10 9 24 20 32 11 8 20 22 20 32 0 10 5 18 10 18
6 0 10 9 10 20 0 11 5 20 10 20 6 0 10 9 10 20 0 11 5 20 10 20 6 0 10 9 10
20 0 11 5 20 10 20 6 0 10 8 10 18 0 23 6 25 425 97 1980 344 3739 752 5361
1245 365 111 1192 386 1519 505 1904 692 3415 1487 4410 2317 334 279 646 602
860 889 290 389 462 760 536 1154 27 141 37 451 19 592 -93 756 -510 1450
-1220 2033 -936 767 -2392 1329 -4290 1654 -935 161 -1934 257 -3160 306 -350
14 -1682 20 -2080 10z m5969 -2647 l-604 -1048 -180 -7 c-99 -4 -313 -12 -475
-18 -810 -30 -1883 -91 -2880 -166 -462 -34 -801 -62 -806 -66 -9 -9 -472
-801 -701 -1198 -1159 -2011 -2669 -4803 -3919 -7247 -105 -205 -133 -253
-149 -253 -12 0 -635 -41 -1385 -90 -751 -50 -1443 -96 -1538 -102 -94 -6
-175 -9 -178 -5 -3 3 84 162 195 354 134 233 196 349 187 351 -8 2 -153 -8
-323 -22 -1333 -109 -2456 -157 -3678 -160 l-690 -1 -3 23 c-2 12 1 22 7 22 6
0 11 9 11 20 0 11 5 20 10 20 6 0 10 8 10 18 0 10 9 24 20 32 11 8 20 22 20
32 0 10 5 18 10 18 6 0 10 9 10 20 0 11 5 20 10 20 6 0 10 9 10 20 0 11 5 20
10 20 6 0 10 9 10 20 0 11 5 20 10 20 6 0 10 9 10 20 0 11 5 20 10 20 6 0 10
9 10 20 0 11 5 20 10 20 6 0 10 8 10 18 0 10 9 24 20 32 11 8 20 22 20 32 0
10 5 18 10 18 6 0 10 9 10 20 0 11 5 20 10 20 6 0 10 9 10 20 0 11 5 20 10 20
6 0 10 9 10 20 0 11 5 20 10 20 6 0 10 9 10 20 0 11 5 20 10 20 6 0 10 8 10
18 0 10 9 24 20 32 11 8 20 22 20 32 0 10 5 18 10 18 6 0 10 9 10 19 0 16 9
21 43 25 23 3 290 10 592 16 1082 21 2092 76 3250 175 547 47 910 86 921 98 6
7 134 235 284 507 150 272 328 594 395 715 128 231 168 304 732 1345 632 1165
1279 2365 1883 3495 279 523 455 851 518 964 l35 64 -214 -6 c-874 -28 -2562
-191 -3924 -381 -93 -13 -172 -22 -174 -20 -3 3 493 962 905 1751 l169 323 85
0 c421 0 2387 81 3435 140 2766 158 6060 453 8290 743 55 7 102 12 104 11 2
-2 -268 -475 -600 -1051z"/>
<path d="M6356 11179 c9 -15 192 -161 293 -233 263 -190 721 -440 1106 -604
157 -66 420 -169 449 -174 14 -2 59 66 222 341 113 189 204 345 202 346 -2 1
-131 17 -288 34 -653 73 -1366 179 -1917 285 -40 7 -70 10 -67 5z"/>
<path d="M24377 6819 c-413 -45 -735 -269 -912 -633 -104 -214 -141 -413 -132
-706 8 -251 42 -400 137 -596 134 -277 362 -475 650 -564 161 -49 203 -55 400
-55 199 0 276 11 427 61 379 127 639 437 734 874 20 93 23 133 23 340 0 206
-3 248 -22 337 -97 445 -366 760 -757 888 -156 50 -378 72 -548 54z m371 -423
c161 -53 309 -182 385 -339 84 -171 112 -323 104 -567 -6 -199 -32 -314 -103
-460 -62 -125 -180 -247 -294 -303 -279 -136 -612 -83 -818 131 -169 176 -256
494 -223 814 27 255 99 424 242 569 60 61 94 85 161 118 119 58 187 71 338 67
103 -2 140 -8 208 -30z"/>
<path d="M13529 6780 c-48 -4 -137 -16 -198 -25 l-111 -17 0 -1214 0 -1214
225 0 225 0 0 465 0 465 184 0 185 0 84 -112 c151 -201 357 -522 476 -740 l43
-78 249 0 c137 0 249 3 249 6 0 15 -132 262 -208 387 -111 186 -202 322 -324
485 -55 73 -98 135 -96 137 1 2 28 14 58 28 93 40 185 104 247 171 72 76 104
129 140 232 26 75 28 88 27 254 0 163 -2 181 -27 255 -91 272 -300 426 -684
501 -91 18 -603 28 -744 14z m650 -395 c164 -33 276 -113 320 -231 20 -51 22
-74 19 -169 -5 -130 -26 -183 -102 -253 -102 -94 -278 -132 -613 -132 l-133 0
0 400 0 399 63 4 c111 8 370 -3 446 -18z"/>
<path d="M5430 5540 l0 -1230 220 0 220 0 0 1230 0 1230 -220 0 -220 0 0
-1230z"/>
<path d="M6460 5540 l0 -1230 220 0 220 0 0 878 1 877 38 -42 c197 -218 698
-933 1036 -1478 65 -104 124 -200 132 -212 13 -23 17 -23 203 -23 l190 0 0
1230 0 1230 -220 0 -220 0 -2 -812 -3 -813 -131 195 c-323 483 -800 1113
-1025 1354 l-71 76 -184 0 -184 0 0 -1230z"/>
<path d="M8840 6575 l0 -195 375 0 375 0 0 -1035 0 -1035 230 0 230 0 0 1035
0 1035 375 0 375 0 0 195 0 195 -980 0 -980 0 0 -195z"/>
<path d="M11140 5540 l0 -1230 830 0 830 0 0 190 0 190 -605 0 -605 0 0 360 0
360 505 0 505 0 0 185 0 185 -505 0 -505 0 0 305 0 305 565 0 565 0 0 190 0
190 -790 0 -790 0 0 -1230z"/>
<path d="M15490 5540 l0 -1230 220 0 220 0 0 878 1 877 35 -40 c239 -273 815
-1105 1130 -1632 l49 -82 193 -1 192 0 0 1230 0 1230 -225 0 -225 0 0 -811 0
-812 -133 199 c-306 457 -744 1038 -1001 1327 l-87 97 -184 0 -185 0 0 -1230z"/>
<path d="M18768 6663 c-196 -419 -412 -942 -636 -1539 -113 -300 -292 -797
-292 -809 0 -3 105 -4 233 -3 l232 3 91 260 c51 143 96 272 102 288 l10 27
517 -2 517 -3 103 -285 103 -285 241 -3 c133 -1 241 0 241 3 0 10 -160 454
-245 680 -247 657 -458 1170 -667 1623 l-71 152 -214 0 -214 0 -51 -107z m380
-673 c118 -295 272 -708 272 -728 0 -9 -93 -12 -400 -12 l-399 0 38 108 c61
168 172 460 249 652 109 271 115 283 123 268 4 -7 56 -137 117 -288z"/>
<path d="M20090 6575 l0 -195 380 0 380 0 0 -1035 0 -1035 225 0 225 0 0 1035
0 1035 375 0 375 0 0 195 0 195 -980 0 -980 0 0 -195z"/>
<path d="M22390 5540 l0 -1230 225 0 225 0 0 1230 0 1230 -225 0 -225 0 0
-1230z"/>
<path d="M26200 5540 l0 -1230 220 0 220 0 2 878 3 877 101 -125 c212 -264
403 -529 659 -915 160 -242 371 -575 426 -672 l24 -43 193 0 192 0 0 1230 0
1230 -225 0 -225 0 0 -811 0 -810 -119 179 c-297 447 -760 1062 -1007 1337
l-90 100 -187 3 -187 2 0 -1230z"/>
<path d="M29489 6683 c-221 -479 -428 -977 -649 -1568 -96 -257 -290 -792
-290 -802 0 -1 105 -3 233 -3 l232 0 102 288 101 287 519 3 520 2 12 -42 c7
-24 54 -154 103 -290 l91 -248 238 0 c132 0 239 4 239 8 0 13 -120 347 -242
672 -221 592 -456 1166 -651 1590 l-85 185 -216 3 -217 2 -40 -87z m374 -703
c59 -146 144 -368 191 -495 l85 -230 -396 -3 c-218 -1 -399 0 -401 3 -3 3 0
22 7 43 59 164 162 435 263 691 111 279 122 302 134 280 6 -13 59 -143 117
-289z"/>
<path d="M31250 5540 l0 -1230 780 0 780 0 0 195 0 195 -555 0 -555 0 0 1035
0 1035 -225 0 -225 0 0 -1230z"/>
<path d="M22622 2560 c-350 -49 -581 -229 -653 -508 -22 -86 -26 -267 -8 -354
27 -131 136 -284 262 -370 81 -55 232 -124 407 -188 228 -82 322 -132 407
-214 61 -61 74 -80 88 -130 36 -123 -2 -254 -93 -323 -70 -53 -155 -74 -322
-80 -225 -8 -409 29 -620 124 l-65 30 -62 -175 c-35 -95 -63 -178 -63 -184 0
-15 155 -84 255 -112 370 -107 822 -96 1080 28 253 121 367 309 366 606 0 210
-56 364 -176 486 -105 106 -232 177 -500 278 -389 148 -506 243 -509 416 -2
124 59 212 180 261 54 22 72 24 229 23 150 -1 182 -4 267 -27 53 -14 134 -42
179 -61 46 -20 86 -33 89 -29 9 10 130 331 130 344 0 27 -234 113 -390 144
-99 19 -384 28 -478 15z"/>
<path d="M20280 2534 c-133 -8 -298 -25 -382 -40 l-88 -16 0 -1209 0 -1209
225 0 225 0 0 460 0 460 148 0 c81 0 163 3 183 6 l36 6 96 -130 c133 -179 315
-457 421 -645 l89 -157 249 0 c136 0 248 2 248 5 0 3 -25 56 -56 118 -123 244
-371 627 -565 873 -6 7 28 29 98 64 89 44 119 65 188 134 141 141 188 266 188
501 -1 162 -20 253 -78 363 -110 211 -340 345 -677 397 -101 15 -419 26 -548
19z m427 -394 c208 -28 323 -99 385 -236 30 -67 32 -223 4 -303 -23 -67 -92
-143 -159 -178 -104 -52 -183 -65 -439 -70 l-238 -5 0 395 0 396 33 4 c70 9
340 6 414 -3z"/>
<path d="M9140 1702 c0 -497 4 -840 10 -892 53 -431 292 -701 692 -784 174
-36 420 -30 596 14 152 39 319 138 413 245 116 131 189 303 219 510 6 42 10
402 10 893 l0 822 -225 0 -224 0 -4 -832 c-3 -751 -5 -839 -20 -897 -69 -255
-233 -381 -497 -381 -264 0 -420 119 -493 379 -21 75 -22 92 -25 904 l-3 827
-224 0 -225 0 0 -808z"/>
<path d="M11650 1285 l0 -1225 220 0 220 0 2 875 3 875 106 -132 c292 -366
641 -869 964 -1391 l140 -226 193 -1 192 0 0 1225 0 1225 -225 0 -225 0 -2
-805 -3 -805 -90 137 c-274 419 -768 1077 -1030 1372 l-90 101 -187 0 -188 0
0 -1225z"/>
<path d="M14280 1285 l0 -1225 220 0 220 0 0 1225 0 1225 -220 0 -220 0 0
-1225z"/>
<path d="M15060 2458 c11 -29 57 -161 104 -293 223 -638 525 -1395 775 -1945
l70 -155 219 -3 218 -2 18 37 c206 425 557 1296 842 2093 l113 315 -236 3
c-130 1 -240 -1 -244 -5 -3 -5 -30 -80 -59 -168 -203 -616 -615 -1735 -640
-1735 -15 0 -166 382 -325 825 -85 238 -375 1073 -375 1081 0 2 -112 4 -250 4
l-249 0 19 -52z"/>
<path d="M17730 1285 l0 -1225 835 0 835 0 0 185 0 185 -607 2 -608 3 -3 358
-2 357 505 0 505 0 0 190 0 190 -505 0 -505 0 0 300 0 300 565 0 565 0 0 190
0 190 -790 0 -790 0 0 -1225z"/>
<path d="M24000 1285 l0 -1225 225 0 225 0 0 1225 0 1225 -225 0 -225 0 0
-1225z"/>
<path d="M24790 2320 l0 -190 375 0 375 0 0 -1035 0 -1035 225 0 225 0 2 1033
3 1032 378 3 377 2 0 190 0 190 -980 0 -980 0 0 -190z"/>
<path d="M26960 2393 c177 -334 429 -770 656 -1134 l154 -246 0 -477 0 -476
225 0 225 0 0 480 0 479 57 88 c235 364 535 877 758 1296 l57 107 -249 0 -248
0 -107 -218 c-105 -213 -227 -437 -395 -721 l-85 -143 -23 34 c-94 139 -409
718 -511 940 l-49 108 -263 0 -264 0 62 -117z"/>
</g>
</svg>
